<svg id="bowlsoup" xmlns="http://www.w3.org/2000/svg" viewBox="0 0 232.2 227.31"><title>provSoupBowl</title><path d="M77.65,207.31H77v20h80v-19a108.82,108.82,0,0,1-79.35-1Z" style="fill:#757449"/><path d="M113.6,210.84c54.58,0,102.32-40,113.52-95.2a4,4,0,0,0-3.92-4.8H4a4,4,0,0,0-3.92,4.8C11.28,170.8,59,210.84,113.6,210.84Z" style="fill:#4b490b"/><path d="M118.6,205.84c54.58,0,102.32-40,113.52-95.2a4,4,0,0,0-3.92-4.8H9a4,4,0,0,0-3.92,4.8C16.28,165.8,64,205.84,118.6,205.84Z" style="fill:#ff0051"/><path d="M54.17,49l-.27-.32A9.81,9.81,0,0,0,51.73,47c-1.14-1-3.67-2.11-7.47,1.13-.25.2-.5.43-.75.66L43.3,49l-.14.14L40.29,52l-10.7,10.7L28.08,64.2l-1.37,1.37a6.4,6.4,0,0,0,0,9.05l16,16a9.71,9.71,0,0,0-.9.8,6.61,6.61,0,0,0-2.26,4.49,6.51,6.51,0,0,0,1.21,3.7c.05.09.11.17.17.26s.29.37.45.55l.27.31a9.81,9.81,0,0,0,2.17,1.68c1.14,1,3.67,2.11,7.47-1.13q.38-.3.75-.66c.07-.07.13-.11.21-.18l.14-.14,2.87-2.88,10.7-10.7,1.51-1.51,1.37-1.37a6.4,6.4,0,0,0,0-9l-16-16a11.3,11.3,0,0,0,.9-.79A6.63,6.63,0,0,0,56,53.5a6.51,6.51,0,0,0-1.21-3.7,2.2,2.2,0,0,0-.17-.25A4.89,4.89,0,0,0,54.17,49Z" style="fill:#e2df9a"/><path d="M211.4,82.63a4.12,4.12,0,0,0,.31-.28,9,9,0,0,0,1.68-2.16c1-1.14,2.12-3.67-1.12-7.47-.21-.25-.43-.5-.67-.75-.07-.07-.11-.14-.18-.21l-.14-.14-2.88-2.87-10.7-10.7-1.51-1.51-1.36-1.37a6.4,6.4,0,0,0-9.05,0l-16,16c-.26-.3-.51-.61-.8-.9A6.6,6.6,0,0,0,164.52,68a6.46,6.46,0,0,0-3.7,1.21l-.26.17c-.19.14-.37.29-.55.45a4,4,0,0,0-.31.27A9.24,9.24,0,0,0,158,72.25c-1,1.14-2.12,3.67,1.12,7.46.21.25.43.51.67.76l.18.2.14.14L163,83.69l10.7,10.7,1.51,1.51,1.36,1.37a6.43,6.43,0,0,0,9.06,0l16-16a11.42,11.42,0,0,0,.8.9,6.61,6.61,0,0,0,4.49,2.26,6.46,6.46,0,0,0,3.7-1.21l.26-.17Z" style="fill:#e2df9a"/><path d="M161.54,19.56c0-.26.05-.52.05-.78a17.64,17.64,0,0,0-.65-5.15c-.22-2.82-2.08-7.73-11.49-8.48-.61-.06-1.24-.1-1.9-.12-.18,0-.32,0-.52,0H102.65A12.12,12.12,0,0,0,90.54,17.11v42.7c-.75-.06-1.5-.13-2.27-.13-3.37,0-6.75.72-9,3a12.4,12.4,0,0,0-3.33,6.56c0,.2-.08.39-.11.58-.07.45-.11.89-.14,1.33,0,.26,0,.53,0,.79a18.27,18.27,0,0,0,.65,5.14c.23,2.83,2.08,7.74,11.49,8.48.61.06,1.25.1,1.9.12.19,0,.33,0,.52,0h44.38a12.12,12.12,0,0,0,12.11-12.1V30.89c.75.07,1.51.14,2.27.14,3.37,0,6.75-.73,9-3a12.29,12.29,0,0,0,3.33-6.56,5.72,5.72,0,0,0,.11-.57C161.47,20.44,161.51,20,161.54,19.56Z" style="fill:#4b490b"/><path d="M166.54,14.56c0-.26.05-.52.05-.78a17.64,17.64,0,0,0-.65-5.15C165.72,5.81,163.86.9,154.45.15c-.61-.06-1.24-.1-1.9-.12-.18,0-.32,0-.52,0H107.65A12.12,12.12,0,0,0,95.54,12.11v42.7c-.75-.06-1.5-.13-2.27-.13-3.37,0-6.75.72-9,3a12.4,12.4,0,0,0-3.33,6.56c0,.2-.08.39-.11.58-.07.45-.11.89-.14,1.33,0,.26,0,.53,0,.79a18.27,18.27,0,0,0,.65,5.14c.23,2.83,2.08,7.74,11.49,8.48.61.06,1.25.1,1.9.12.19,0,.33,0,.52,0h44.38a12.12,12.12,0,0,0,12.11-12.1V25.89c.75.07,1.51.14,2.27.14,3.37,0,6.75-.73,9-3a12.29,12.29,0,0,0,3.33-6.56,5.72,5.72,0,0,0,.11-.57C166.47,15.44,166.51,15,166.54,14.56Z" style="fill:#ebe54d"/></svg>