<svg id="Layer_1" data-name="Layer 1" xmlns="http://www.w3.org/2000/svg" viewBox="0 0 200 162.54"><title>twitter</title><path d="M250,88a81.8,81.8,0,0,1-23.57,6.46,41.09,41.09,0,0,0,18-22.7,81.92,81.92,0,0,1-26.05,10,41.08,41.08,0,0,0-69.92,37.43A116.53,116.53,0,0,1,63.92,76.24,41.1,41.1,0,0,0,76.62,131,40.87,40.87,0,0,1,58,125.89c0,.17,0,.35,0,.52A41.06,41.06,0,0,0,91,166.64a41.25,41.25,0,0,1-18.53.71,41.06,41.06,0,0,0,38.33,28.49,82.31,82.31,0,0,1-51,17.57,83.29,83.29,0,0,1-9.79-.58,116.09,116.09,0,0,0,62.9,18.44c75.47,0,116.74-62.52,116.74-116.75,0-1.78,0-3.55-.11-5.31A83.35,83.35,0,0,0,250,88Z" transform="translate(-50 -68.73)" style="fill:#2caae1"/></svg>