<svg data-name="Layer 1" xmlns="http://www.w3.org/2000/svg" viewBox="0 0 100 100"><path data-name="&lt;Slice&gt;" fill="none" d="M0 0h100v100H0z"/><path d="M100 17.65a40.91 40.91 0 01-11.78 3.23 20.6 20.6 0 009-11.35 41 41 0 01-13 5 20.54 20.54 0 00-35 18.72A58.28 58.28 0 017 11.77a20.55 20.55 0 006.35 27.38A20.39 20.39 0 014 36.6v.26A20.53 20.53 0 0020.5 57a20.7 20.7 0 01-9.26.36A20.52 20.52 0 0030.4 71.57a41.14 41.14 0 01-25.5 8.79 42.25 42.25 0 01-4.9-.29 58.1 58.1 0 0031.46 9.22c37.73 0 58.37-31.26 58.37-58.38 0-.89 0-1.77-.06-2.65A41.61 41.61 0 00100 17.65z" fill="#2caae1"/></svg>